<?xml version="1.0" encoding="utf-8"?>
<!-- Generator: Adobe Illustrator 23.0.2, SVG Export Plug-In . SVG Version: 6.00 Build 0)  -->
<svg version="1.1" id="water" xmlns="http://www.w3.org/2000/svg" xmlns:xlink="http://www.w3.org/1999/xlink" x="0px" y="0px"
	 viewBox="0 0 1470 320.6" style="enable-background:new 0 0 1470 320.6;" xml:space="preserve">
<style type="text/css">
	.st0{opacity:0.7;fill:#0087BC;enable-background:new    ;}
	.st1{opacity:0.4;fill:#C1E2F4;enable-background:new    ;}
	.st2{fill:#0090A9;}
	.st3{fill:#00B5D4;}
	.st4{fill:#FCB638;}
	.st5{fill:#E7B933;}
	.st6{opacity:0.1;fill:#BA8828;}
	.st7{fill:#FCB74A;}
	.st8{display:none;opacity:0.15;fill:#C48F2B;}
	.st9{opacity:0.3;fill:#DA9F31;}
	.st10{fill:#C7852C;}
	.st11{fill:#0092A9;}
	.st12{fill:#DF7191;}
	.st13{fill:#E07C96;}
	.st14{opacity:0.75;fill:#A0506A;}
	.st15{fill:#DA9F31;}
	.st16{fill:#FFFFFF;}
	.st17{fill:#434345;}
	.st18{fill:#FFDE46;}
	.st19{fill:#383638;}
	.st20{opacity:0.6;fill:#BD607D;}
	.st21{fill:#C7912C;}
	.st22{fill:#FCB74C;}
	.st23{fill:#FFD683;}
	.st24{fill:#42C0C6;}
	.st25{fill:#52C5D7;}
	.st26{opacity:0.25;fill:#3CB0B5;}
	.st27{opacity:0.25;fill:#36A1A6;}
	.st28{fill:#4F98D2;}
	.st29{opacity:0.6;fill:#C48F2B;}
	.st30{opacity:0.1;fill:#626366;}
	.st31{fill:#54B848;}
	.st32{fill:#231F20;}
	.st33{opacity:0.15;}
	.st34{filter:url(#Adobe_OpacityMaskFilter);}
	.st35{mask:url(#SVGID_1_);}
	.st36{fill:#545456;}
	.st37{fill:#00B8D5;}
	.st38{opacity:0.4;fill:#2F95F2;enable-background:new    ;}
	.st39{display:none;fill:url(#waterp1_1_);}
	.st40{display:none;opacity:0.5;fill:url(#waterp2_1_);enable-background:new    ;}
	.st41{display:none;}
	.st42{display:inline;fill:#72CDE9;}
	.st43{display:inline;fill:#FFFFFF;}
	.st44{display:inline;}
	.st45{fill:#72CDE9;}

	#eye0 {
		perspective: 1000;
		backface-visibility: hidden;
		will-change: transform;
		animation: eye-move0 2s ease-in-out infinite;
	}
	@keyframes eye-move0 {
		50% {
			transform: translateX(-2.5px);
		}
	}
	
	#eye {
	perspective: 1000;
	backface-visibility: hidden;
	will-change: transform;
	animation: eye-move 2s ease-in-out infinite;
	}
	@keyframes eye-move {
		50% {
			transform: translateX(-1.5px);
		}
	}

	#hand {
	perspective: 1000;
	will-change: transform;
	transform-origin: center;
	backface-visibility: hidden;
	animation: fin-swim 2s ease-in-out infinite;
	}

	@keyframes fin-swim {
	0% {
		transform: rotateZ(0.6deg);
	}
	50% {
		transform: rotateZ(0);
	}
	100% {
		transform: rotateZ(0.6deg);
	}
	}

	#naco {
        -webkit-animation: naco 3s infinite;
        -moz-animation: naco 3s infinite;
        animation: naco 3s infinite;
    }
	@keyframes naco {
        0% {
            transform: translateY(7%);
        }
        25% {
            transform: translateY(3%);
        }
        50% {
            transform: translateY(5%);
        }
        75% {
            transform: translateY(0%);
        }
        100% {
            transform: translateY(7%);
        }
    }

	#water0 {
        -webkit-animation: shake 3.5s infinite;
        -moz-animation: shake 3.5s infinite;
        animation: shake 3.5s infinite;
		}
    #water1 {
        -webkit-animation: shake 4s infinite;
        -moz-animation: shake 4s infinite;
        animation: shake 4s infinite;
    }
    #water2 {
        -webkit-animation: shake 4.5s infinite;
        -moz-animation: shake 4.5s infinite;
        animation: shake 4.5s infinite;
    }
	@keyframes shake {
        0% {
            transform: translateX(-5%);
        }
        50% {
            transform: translateX(10%);
        }
        100% {
            transform: translateX(-5%);
        }
    }
</style>
<path id="water0" class="st0" d="M3276.9,1102h-4350.3c0,0-391.5-862-73.3-813.2c146.7,22.5,457.6,32.7,734-12
	c232.6-37.6,399.6-32.2,528.5-12.5c168.9,25.8,239,63.8,391,88.5c18.9,3.1,51.2,7.4,91.3,4.8c29.8-1.9,56.2-7.3,66.8-9.6
	c10.1-2.2,11.4-2.8,49-13c0,0,32.9-9.1,71.9-19.1c59.7-15.2,119.8-22.9,143.4-25.9c155.2-19.7,316.2-6.8,316.2-6.8
	c351.6,28.2,488.9,78.2,710.9,85.9c260.1,9.1,526.5-134.7,740.7-134.7c222.7,0,380.4,63.1,552.8,88.8
	C3515.4,363.3,3276.9,1102,3276.9,1102z"/>
<g id="naco">
	<g>
		<path class="st2" d="M1196.2,280.9c0.1-10.9-4.4-13.8-13-9.3c-3.8,6.8-8.1,12.7-12.9,17.5c-2,1.8-4.3,3.3-7.4,4.3
			c-1.9-1-3.8-1.2-5.8-0.4c-2.3,1.2-2.8,3.1-2.6,5.3c0,0.6,1.2,1.5,3,2.3c-2,0.2-4.6,0.3-6,1.4c-1.9,1.2-2.2,3.5-2.3,5.6
			c0.1,1.5,1,2.8,2,4c0.9,0.7,2.2,0.9,3.6,0.8c-0.9,0.7-1.2,1.6-1.3,2.7c-0.2,1.3,0.3,2.2,1,3.2c1.2,1.5,2.9,2.2,4.9,2.4
			c1.1-0.1,2.2-0.5,3.1-1.2c-0.3,0.7-0.3,1.3,0,2.1c0.7,0.8,1.7,1.3,2.9,1.7c2.4,0.2,4.4-0.7,6-2c3.5-3.1,6.4-6.5,9.1-10.1
			c3.2-4,6-8.5,8.8-13.5c1.7-3.3,3.3-7.2,4.9-11.5C1194.9,284.5,1195.6,282.7,1196.2,280.9z"/>
		<path class="st3" d="M1151.4,301.9c0.7-0.5,1.7-0.8,2.7-1c-4.8,1-6.5,7.9-1.9,9.2c-0.2-0.1-0.9,1.5-1.2,1.3c-1-1.2-1.8-2.4-2-4
			C1149.2,305.3,1149.5,303.1,1151.4,301.9z"/>
		<path class="st2" d="M1158.8,299.7c0.8,0.2,4.8,0.5,2.9,1.8c-1.3,1-4.1-0.4-5.6-0.6c-0.6-0.1-1.2-0.1-1.8-0.1
			c1-0.2,2.1-0.3,3.1-0.4c-1.8-0.8-2.9-1.6-3-2.2C1155.8,298.9,1157.3,299.4,1158.8,299.7z"/>
		<path class="st3" d="M1153.3,310.1c1.2,0,2.4-0.1,3.6,0c-0.2,0.4-0.5,0.7-0.7,1.1c-0.4,0.8-0.7,1.6-0.7,2.5c0,1.5,0.7,2.8,2.1,3.5
			c1.2,0.6,2.7,0.5,4,0.1c0.7-0.2,1.4-0.5,2-0.9c0.7-0.4,0.4-0.5,0.8,0.1c2.2,3,7.2,1.5,9.8-0.1c2.2-1.3,3.9-3.2,5.8-4.8
			c-2.6,3.4-5.5,6.7-8.8,9.7c-1.6,1.3-3.6,2.2-6,2c-1.2-0.4-2.3-0.9-2.9-1.7c-0.3-0.8-0.3-1.4,0-2.1c-0.9,0.7-2,1.1-3.1,1.2
			c-2-0.2-3.7-0.9-4.9-2.4c-0.6-1.1-1.2-2-1-3.2c0.2-1.1,0.4-2,1.3-2.7c-1.4,0.1-2.7-0.1-3.6-0.8c-0.5-0.6-1-1.3-1.4-2
			C1150.7,310.2,1152.1,310.2,1153.3,310.1z"/>
	</g>
	<path class="st4" d="M1214.7,242c-0.7-0.4-20,1.3-20,1.3c-5.1,2.7-7.4,6.9-7.3,14.1c0.4,2.4,0.6,5-0.1,7.1c-1.4,2.5-2.7,5-3.5,7.7
		c0,1-0.3,2.1-0.8,3.1c0,0.1,0,0.2-0.1,0.2c-0.1,0-0.1,0-0.3-0.1c-0.9-0.3-3.5-1.2-3.5-1.2c-2.8,3.2-4.8,7.3-6.5,12
		c-2.8,5.3-8.4,16.4-10.9,23.7c-2.3,6.6-1.7,7.9-3.2,15.9c-0.8,8.8,0.2,19.6,1.9,28.9c0.9,3.9,1.5,6.8,2.7,9.8
		c0.3,0.8,1.4,3.2,3.3,6.2c4,6.3,8.7,10.1,12.5,13.1c0.8,0.6,4.3,3.4,9.5,6.5c5.5,3.3,10.2,5.1,12.3,6c3.2,1.2,5.8,1.9,6.7,2.2
		c0.2,0,2.4,0.7,5,1.2c7.2,1.4,13.1,1.5,16.4,1.6c1.4,0,2.6,0,3.2,0c1.9,0,4.4-0.1,7.4-0.3c2.7-0.2,7.2-0.6,12.3-1.8
		c4.2-1,11.4-2.7,19-8c0.8-0.6,4.5-3.1,8-7c9.7-10.6,12.2-23.9,13-30c-0.3-0.8-50.4,23.4-51.2,23.4c-2.8-0.5-5.2-1.9-7.4-3.6
		c-3.4-3-6.3-6.7-9-10.8c-2.1-5.3-3.4-11-4.2-17c-0.9-6.2-1.2-12.1-0.8-17.6c0-7.8-0.1-16,0.7-19c-0.6-7.5-0.2-13.7,0.7-19
		l-0.2-18.3l-1.4-15.3C1219,256.9,1215.4,242.4,1214.7,242z"/>
	<path class="st5" d="M1194,242.4c0-1.5-2.8-1.6-5.3-4.3c-3.1-3.3-2.7-7.5-3.8-7.5c-0.8,0-1.2,2.4-2,5.1c-0.8,2.6-2.7,8.7-7,12.8
		c-3.6,3.5-7.3,4-8.9,7.3c-0.3,0.6-1,1.7-2.1,3.1c-1.2,1.4-2.3,2.7-2.2,2.9c0.1,0.1,0.6-0.3,1.4-0.3c0.7,0.1,1.1,0.5,1.8,1
		c0.8,0.5,1.5,0.5,2.4,0.6c2.7,0.3,3.5-1.3,4.7-0.7c1.5,0.7,1.8,4.1,1.2,6.5c-0.4,1.5-1,2.1-0.6,2.9c0.6,1.2,2.2,0.6,3.4,2.1
		c0.9,1.1,0.4,1.9,1.5,3.3c0.4,0.5,1.3,1.6,2.4,1.5c2.2-0.1,2.6-0.2,2.1-2.9c-0.2-0.9-1.3-0.9-2-2c-0.7-1.2-0.4-2.5-0.2-3.5
		c0.5-2.3,1.3-3,2-4.9c0.9-2.6,0-2.9,0.6-6.3c0.4-2.3,1.3-4.1,3.2-7.6c1.4-2.7,2.1-4.1,3.2-5.3C1192.2,243.9,1194,243.7,1194,242.4z
		"/>
	<path class="st6" d="M1194,242.4c0-1.5-2.8-1.6-5.3-4.3c-3.1-3.3-2.7-7.5-3.8-7.5c-0.8,0-1.2,2.4-2,5.1c-0.8,2.6-2.7,8.7-7,12.8
		c-3.6,3.5-7.3,4-8.9,7.3c-0.3,0.6-1,1.7-2.1,3.1c-1.2,1.4-2.3,2.7-2.2,2.9c0.1,0.1,0.6-0.3,1.4-0.3c0.7,0.1,1.1,0.5,1.8,1
		c0.8,0.5,1.5,0.5,2.4,0.6c2.7,0.3,3.5-1.3,4.7-0.7c1.5,0.7,1.8,4.1,1.2,6.5c-0.4,1.5-1,2.1-0.6,2.9c0.6,1.2,2.2,0.6,3.4,2.1
		c0.9,1.1,0.4,1.9,1.5,3.3c0.4,0.5,1.3,1.6,2.4,1.5c2.2-0.1,2.6-0.2,2.1-2.9c-0.2-0.9-1.3-0.9-2-2c-0.7-1.2-0.4-2.5-0.2-3.5
		c0.5-2.3,1.3-3,2-4.9c0.9-2.6,0-2.9,0.6-6.3c0.4-2.3,1.3-4.1,3.2-7.6c1.4-2.7,2.1-4.1,3.2-5.3C1192.2,243.9,1194,243.7,1194,242.4z
		"/>
	<path class="st6" d="M1218.4,266.9c-1.1,0.9-2.2,1.5-3.5,2c-4.2,1.9-8.4,3.9-12.8,5.4c-2.4,0.8-4.7,1.6-7.1,2.2
		c-1.1,0.3-2.2,0.6-3.4,0.8c-0.1,0-0.2,0.1-0.3,0.1c-0.1,0-0.1,0-0.2,0c-0.6,0.1-1.1,0.2-1.7,0.3c-2.4,0.4-4.9,0.7-7.4,0.7
		c-0.6,0-1.2,0-1.8,0c0,0,0,0,0,0c-0.2,0-0.4,0-0.6-0.1c-1.1-0.1-2.1-0.3-3.2-0.4c0.8-1.4,1.7-2.6,2.7-3.8c0,0,2.6,1,3.5,1.2
		c0.2,0.1,0.2,0.1,0.3,0.1c0.1,0,0.1-0.2,0.1-0.2c0.5-1,0.8-2,0.8-3.1c0.9-2.7,2.1-5.3,3.5-7.7c0.7-2.1,0.4-4.7,0.1-7.1
		c-0.1-7.3,2.2-11.5,7.3-14.1c0,0,19.3-1.7,20-1.3c0.7,0.4,4.2,14.9,4.2,14.9l0.8,8.8C1219.7,265.8,1218.7,266.7,1218.4,266.9z"/>
	<path class="st7" d="M1203.8,369c-0.7-9.4-0.5-18.8-0.4-28.2c0.1-9.4-1-18.9,1.1-28.2c2.6-11.4,9.4-21,16.3-30.2l0.1,8.1
		c-0.9,5.3-1.3,11.5-0.7,19c-0.8,3-0.7,11.2-0.7,19c-0.4,5.5-0.1,11.3,0.8,17.6c0.4,3.1,0.9,6.2,1.7,9.1c-1.3,3.2-2.4,6.5-3.7,9.7
		c-1.9,4.4-4.1,9.4-7.7,12.6c-1.1,1-2.3,1.6-3.6,1.6c0.1,0-0.7-0.1-0.8-0.2c-0.1,0-0.3-0.1-0.4-0.2c-0.1-0.1-0.4-0.5-0.3-0.4
		C1204.1,375.5,1204,372.2,1203.8,369z"/>
	<path class="st8" d="M1167.5,370.1c6.2-1.5,18.8,7.9,25.9,9.8c9,2.3,18.2,3.6,27.4,3.5l46.2-4.2c14.3-1.5,22.5-10,24.7-25.1
		c0-0.3-0.3,6.6-3.3,14.8c-3.1,8.6-7.3,15.1-10.5,19.3c0,0-0.1,0.1-0.1,0.1c-1.7,2.1-4.2,4.2-7.9,5.6c-12,5.9-26.6,7.6-42.6,7.2
		c-9.1,0.4-16.2-1.1-21.9-3.3c-7.2-2.3-13.8-5.5-19.9-9.3c-9.2-5.8-20.5-15.3-19-17.8C1166.7,370.3,1167.2,370.1,1167.5,370.1z"/>
	<path class="st4" d="M1252.5,292.1c1.3-4.1,4.4-2.3,7.3,0.3c1.9,2.7,2.9,2.3,3.3-0.2c-0.7-5.3,0.8-7.7,3.4-8.4
		c3.7-0.1,6.3,0.7,8.3,2.7l2,1.8c1.3,0.9,2.1,0.9,3-0.4c0.5-5.4,2.8-5.5,5.6-4.1c2.5,1,4.6,2.1,6.6,3.3c2.2,0.7,3.9,0.3,5-1.3
		c1.7-2.7,2.2-5.6,1.7-8.7c-0.3-2.5-1.4-4.8-3.3-6.8c-1.7-2.4-2.8-5-3.4-7.8c-0.1-3.8,0.6-7.2,2.3-10.1l3.3-4.2
		c1.9-1.9,3.2-2,3.2,1.3l-1.3,4.3c-0.4,2.1,0.4,3.3,1.8,3.8l6.8,3.5c2.6,1.5,4.5,3.6,6,6c1.6,2.6,2.4,5.7,2.2,9.4
		c-0.1,1.6-0.2,2.9,0.1,4.5c0,0.2,0.1,0.7,0.3,0.8s0.4-0.1,0.6-0.2c1.1-0.2,2,0.1,2.4,3.8c0.2,3.7,0,7.4-0.7,11.1
		c-0.5,4.1-1.8,8.1-3.8,12c-1.4,1.5-2.5,2.7-4.2,3.6c0,0-1.3,0.8-0.2,0.9c1.2-0.3,0.8,2.6,0.8,2.6c-0.2,1.3-0.6,2.4-1.3,3.3
		c-1.6,1.5-3.4,2.8-5.3,3.7c-2,1.1-4.1,2.1-6.3,3c-0.2,0.1-0.5,0.3-0.7,0.1c-0.1-0.1,0.2-0.5,0.2-0.5l10.9-17.2l3.4-16.3l-2-3.5
		c0,0-8.4,5.2-8.8,5.5s-20,3.4-20,3.4l-9.4,8l-9.7,9.2l-7-1.6l-2.7-8.8L1252.5,292.1z"/>
	<path class="st9" d="M1252.5,292.1c0.2-0.6,0.4-1.1,0.7-1.5c0,0.2,0,0.5,0,0.7c-0.1,2.4,0.2,4.7,0.8,7c1.2,4.8,4.1,11.8,10.4,9.5
		c4.4-1.7,7-6.2,10.4-9.2c2.8-2.4,6.1-4,9.6-5c3.9-1.1,7.8-1.2,11.7-1.8c4-0.6,7.3-1.9,10.4-4.4c1.5-1.2,3.1-2.2,4.4-3.6
		c0.4-0.4,0.8-0.9,1.2-1.3c0.2,0.3,0.4,0.6,0.7,0.9c1,1.3,2.5,2.5,3,4.1c1.1,3.8,0,8.5-1,12.3c-1.1,4.3-2.8,8.4-5,12.2
		c-2.4,4.1-5.4,7.8-8.4,11.4c-0.3,0.4-0.4,0.7-0.5,1.1c-0.7,0.3-1.5,0.7-2.3,1c-0.2,0.1-0.5,0.3-0.7,0.1c-0.1-0.1,0.2-0.5,0.2-0.5
		l10.9-17.2l3.4-16.3l-2-3.5c0,0-8.4,5.2-8.8,5.5s-20,3.4-20,3.4l-9.4,8l-9.7,9.2l-7-1.6l-2.7-8.8L1252.5,292.1z"/>
	<path class="st4" d="M1209.7,162.5c5.3,1.9,9.8,7.5,13.6,15.5c2.5,4.5,4.7,10.9,6.8,17.9c0.2,0.7,0.9,0.6,1.9-0.1l3.6-2.7
		c1.2-0.6,2.2-0.4,3,0.4c1.7,2,3.9,6.9,4.7,9.4c0.8,2.5,1.9,11.3,2.1,19.3l0.3,5.3c0.1,1.1,0.2,2.4,1.6,1.8c0.7-0.5,2.3-0.7,3.9-0.7
		c1.6-0.1,2.5,0.5,2.9,1.5c0.8,3.5,0.8,8,0.4,12.9c-0.1,5-0.9,10-2.3,15.1c0,0-1.4,9.3-1.7,9.4c-0.3,0-3-19.5-3-19.5
		s-4.4-19.6-4.4-19.9c0-0.3-9.9-20.2-9.9-20.2l-13-15.9c-5.6-6.1-11.2-12.1-19.1-14.5c-0.8-0.7-1-2.9-0.2-3c2.3,0.6,3.6,1.4,6.1,0.3
		c2.1-1.3,3.5-2.6,4-5.5C1211.5,167.1,1211.5,164.8,1209.7,162.5z"/>
	<path class="st10" d="M1195.7,163.5c1.3,2.8,2,5,6.2,5.9c1.8-0.1,2.5-0.9,3.3-2c0.8-1.1,3.1-4.2,4.5-5c2.1,1.3,2.9,5.1,0.8,9.7
		c-1.4,2.3-3.7,3.7-7,3.1c-2.7-0.3-3.6-1.1-6.1-3.5c-2.1-1.9-3.7-3.8-4.2-6.1C1192.5,163.3,1194,162.4,1195.7,163.5z"/>
	<path class="st11" d="M1193.6,244.4l-1.2-0.8c-4.6,3.9-6,6.7-7.5,11.3c-1.6,2.7-2.6,7.2-3,12.4c-1.6,1.3-1.9,3.2-1,6.3
		c0.2,0.3,0.7,1,1.2,1.7c0.9,1.1,1.8,0.6,1.8-0.8c-0.2-1.7,0.1-2.6,0.7-3.8c1.4-2.1,2.4-4.6,3.2-7.4c0.8-1.6,0.8-5,0.2-9.4
		c0.3-1.7,0.4-3.6,1.4-5.2C1191.2,246.1,1191.4,246,1193.6,244.4z"/>
	<path class="st12" d="M1182.6,225.8c0.7,0.7,3.6,9.5-0.8,15.3c-3.1,5-6.7,9.2-11.2,12.1c-3,2.3-5.5,5.5-7.7,9.2
		c-2.1,2.6-4.5,4.9-7.2,6.8c-2.2,0.8-4.3,0.9-6.2,0.4c-1.1-0.6-1.2-1.3-0.4-2.3c2.5-1.6,3.6-3.6,4.3-5.6c0.8-3.4,0.9-6.7,0.8-9.9
		c0.3-2.2,0.3-4.5,0-6.8c0.1-0.7,0.4-2.7,1.4-3.3c1.7-2.7,3.3-3.9,5.7-6.1c2.8-0.5,6.1-1.5,8.9-2.8c2.4-1,4.7-2.9,7.3-4.4
		C1178.9,227,1181.9,225.1,1182.6,225.8z"/>
	<path class="st13" d="M1149,267.3c2.2-1.4,3.3-3.1,4-4.9c2.9-2.1,5.2-4.7,6.9-7.9c1-2,1.7-4.2,2.5-6.3c0.2-0.4,0.3-0.9,0.5-1.3
		c0,0,0-0.1,0.1-0.2c0,0,0,0,0,0c0-0.1,0-0.1,0-0.2c0,0,0,0,0-0.1c0.2-0.7,0.5-1.4,0.8-2c0.2-0.6,0.6-1.2,0.8-1.7c0,0,0,0,0,0
		c0,0,0,0,0,0c0.1-0.1,0.3-0.3,0.5-0.6c0,0,0.1-0.1,0.2-0.1c0.8-0.5,1.5-1,2.3-1.4c0.1,0,0.2-0.1,0.4-0.2c0.2-0.1,0.4-0.2,0.7-0.3
		c2.7-1.3,6-3,8.9-5.1c-0.1,0.2-0.1,0.5-0.2,0.7c-0.2,0.7-0.3,1.4-0.5,2.1c-0.1,0.4-0.3,0.9-0.4,1.3c0,0-0.1,0.2-0.1,0.4
		c-0.1,0.2-0.2,0.5-0.2,0.6c-0.2,0.4-0.3,0.9-0.5,1.3c-0.3,0.7-0.6,1.4-0.9,2.1c-0.3,0.6-0.5,1.3-0.7,1.9c-0.3,0.3-0.6,0.7-0.9,1.1
		c-3,1.7-5.6,4.2-7.5,7.1c-0.8,1.3-1.4,2.7-1.7,4.2c-1.1,1.2-1.9,2.6-2.5,4.1c-0.1,0.3-0.2,0.5-0.3,0.8c-0.1,0.1-0.2,0.3-0.4,0.4
		c0,0-0.1,0.1-0.1,0.1c-0.6,0.5-1.1,1-1.7,1.5c-0.4,0.3-0.7,0.7-1.1,1c-0.1,0.1-0.5,0.4-0.7,0.7c-0.2,0.2-0.5,0.4-0.5,0.5
		c-0.3,0.3-1.2,1.1-1.6,1.1c0.8-0.4,0.9-0.4,0.2-0.1l-0.5,0.2c-1,0.4-2.1,0.6-3.2,0.9c0,0-0.1,0-0.1,0c-0.2,0-0.5,0.1-0.7,0.1
		c-0.5,0.1-1,0.1-1.5,0.1C1148.3,268.8,1148.4,268.1,1149,267.3z"/>
	<path class="st14" d="M1183,228c-0.9,1.2-2,2.6-3,3.7c-1.8,2-3.7,3.8-5.9,5.4c-5.8,5.4-12.4,8.8-19.7,10.4c0-0.9-0.2-2.4-0.3-2.6
		c0.2-1.5,0.6-2.7,1.4-3.3l5.7-6.1c5.4-0.6,12.3-3.4,21.4-9.9L1183,228z"/>
	<g>
		<path class="st15" d="M1183.3,225.3c-0.1-2,0.5-4.4-0.4-4.7c-1.5-0.3-3.9,1-5.2,1.5c-1.8,2.4-4.7,4.5-8.1,6.5
			c-2.9,1.3-5.9,2-8.8,2.2c-1.7-0.6-4-1-6.8-0.9c-2.4,0.6-4.2,1.8-5.8,3.2c-2.3,1.7-5.9,3-9.4,4.4c-3.4,1.1-6.8,1.7-10.2,1.9
			l-3.2,0.2c-0.1,2,1.7,3.3,4.1,4.2c3.7,0.4,7.5,0,11.5-1.3c4.2-0.9,8.1-2,11.4-3.5c3.9-0.5,6.8-1.6,9.4-3c3.5-0.6,6.9-1.7,10.2-3.3
			C1176.6,230.2,1180.3,227.8,1183.3,225.3z"/>
		<path class="st4" d="M1178.4,222.1c-3.9-0.3-7.5-0.8-10.5-1.8c-3.5,0.5-7.4,0.5-11.8,0.1c-5.2-1.8-9.2-4.3-12.6-7
			c-2.7-2.6-5-2.9-6.9-1l-3.3,2.9c-2.6,1.2-3,1-3.8-2.1c-3-3.7-6-7.4-8.6-9.2c-2.6-3.1-6.1-6.1-9.6-8.8c1.3,4.6,1.7,10.1,1.5,16.1
			c-0.2,6.4,0.6,11.8,2.5,15.4c0.9,3,2.7,5.8,4.9,8.5c1.5,1,2.6,2.4,3.4,3.9c0,0.1,0,0.2,0.1,0.2c0.1,0,0.3,0,0.4,0
			c3,0.3,6.2,0.4,8.9-0.5c5-0.3,13.2-3.4,17.1-5.7c2-1.6,1.8-1.4,4.7-2.4c3.3-0.5,3.9-0.1,6.6,0.7c3.9-1.1,7.3-2.2,9.7-3.3
			C1173.7,227.1,1176.2,224.9,1178.4,222.1z"/>
		<path class="st9" d="M1172.2,226.7c-2.4,0.8-5.5,0-8-0.4c-3.3-0.5-6.6-1.2-9.9-2.2c-2.7-0.9-5.5-1.7-8-2.9c-2.4-1.1-4.4-2.9-7.2-3
			c-2.3-0.1-4.3,1.1-6.2,2.3c-1.3,0.8-2.6,1.6-4,0.6c-1.5-1.1-2.4-3-3.5-4.5c-1.3-1.9-2.9-3.5-4.7-5c-1.9-1.5-3.8-3-5.6-4.7
			c-0.9-0.8-1.8-1.5-2.8-2c-0.2-3.4-0.6-6.6-1.4-9.5c3.5,2.6,7,5.6,9.6,8.8c2.6,1.9,5.6,5.6,8.6,9.2c0.9,3.1,1.2,3.3,3.8,2.1
			l3.3-2.9c1.9-2,4.2-1.7,6.9,1c3.4,2.8,7.4,5.2,12.6,7c4.4,0.4,8.3,0.4,11.8-0.1c3,1,6.7,1.5,10.5,1.8c-1.4,1.8-3,3.3-4.6,4.5
			C1173.2,226.5,1172.8,226.5,1172.2,226.7z"/>
		<path class="st16" d="M1160.8,231.4c-1.5-1.3-3.5-1.2-5.8-1.2c-1.8,0.3-3.1,1-4,2c-0.5,2.1,0.8,4.5,2.4,7c1.2,1.6,2.6,2.9,4.2,4
			c0.9,0.8,2.1,1.4,3.3,1.9c1.1,0,1.9,0.2,1.7-1.4c-0.5-1.7-0.8-3.7-1-6L1160.8,231.4z"/>
		<path class="st17" d="M1151,232.3c0.9-1.1,2.2-1.8,4-2c2.3,0,4.2-0.1,5.8,1.2l0.1,0.6c0,0-1.1-0.8-1.3-0.8
			c-0.2-0.2-1.3-0.4-1.5-0.4c-1.7-0.4-3.8-0.1-5.2,0.6c-0.2,0.1-1.1,0.7-1.2,0.9c-0.1,0.1-0.7,0.9-0.7,1
			C1151,232.9,1151,232.6,1151,232.3z"/>
	</g>
	<g>
		<circle class="st18" cx="1129.7" cy="229.2" r="3.3"/>
		<path class="st19" d="M1127.8,229.7c-0.6,0.8-0.3,2-0.3,2s1.3,0,1.8-0.8c0.6-0.8,1.1-1.4,0.3-2S1128.4,228.9,1127.8,229.7z"/>
	</g>
	<path class="st20" d="M1175.9,248.8c2.4-6.7,3.9-12.6,3.1-15.9l4-4.8c0.2,1.4,0.6,2.9,1.2,4.4c0.1,3.1-0.5,5.8-2,7.9
		C1180.3,243.5,1178.3,246.3,1175.9,248.8z"/>
	<path class="st21" d="M1146,173.5c-0.2-0.2-0.5-0.4-0.7-0.6c0.5,0,1,0,1.5,0.1c-0.1,0.3-0.2,0.5-0.2,0.8
		C1146.5,173.7,1146.2,173.6,1146,173.5z"/>
	<path class="st21" d="M1150.8,187.2c0.7,0.3,1.4,0.6,2.1,0.7c-0.1,0.2-0.3,0.3-0.5,0.3C1151.9,188.3,1151.4,187.8,1150.8,187.2z"/>
	<path class="st4" d="M1200.3,173.7c-5.7-3.8-6.1-6.4-6.1-6.4s-2.1-4.9,1.5-3.8c-2.7-4.1-8.2-8.4-10.3-9.8s-9.2-4.8-14.3-5.1
		c1.1,6.3-0.6,10.3-2.1,12.1c-4.2,2.6-8.1,2.2-11.5-1.4c-3.5-3.1-4.2-7.2-2.9-12c1.7-4.1,1.7-9.1,0.6-14.6
		c-1.3-3.4-2.1-6.8-2.2-10.2c1.1-2.8,2.6-4.9,4.6-6.2c1.7-1.5,2.9-3,3.5-4.6c-3.2-0.9-6.1-0.4-8.7,1.7c-3.4,2-7,5.5-9.1,9.1
		c-0.1,0.2-0.2,0.1-0.4,0.7c-0.2,0.6-0.1,0.6-0.1,0.9c-0.8,6.1-4.2,9.3-8.1,12.3c-4.7,3.9-8.3,8.5-10.5,15.3c-1.3,3.6-6.4,5.9-7,9.9
		l-3.4-2c0,0,5.6,7.1,8.1,8.1c3.1,3.1,5.2,7,6.4,11.4c0.3,2.7,1.2,7,1.5,10.6c2-1.9,3.2-5,7.5-3.9c4.4,1.3,7.5,4,10.3,7
		c2.4,1.9,5.2,3.4,8.2,4.8c2.4-6.2,6.1-11.4,10.7-16c1.3-0.1,2.7,1.1,4.4,3.4c0-1.9,0.1-3.6,0.7-5c5-3.4,14.1-10.2,14.1-10.2l2-0.1
		C1191.1,171.4,1196.1,172.8,1200.3,173.7z"/>
	<path class="st22" d="M1194.2,167.3c0,0,0.1,0.8,1,2c-2.8-1.9-5.6-3.5-8.8-4.6c-2.9-1-6.5-1.5-9.2,0.3c-2.6,1.6-4,4.4-5.8,6.8
		c-6.2,0.8-11.8-1.2-17.8-3.3c-7.6-2.7-12.6-9.6-13.6-16.9c-0.2-1.4,0.9-9.2-0.2-8.4c-2.4,1.7-6.6,12.6-8.3,15
		c-1.3,1.8-2.8,4.1-4.8,5c-2.2,1-5.1,0.6-7.4,0.5c-0.7,0-1.5-0.1-2.3-0.1c-1.8-2-3.2-3.8-3.2-3.8l3.4,2c0.6-4,5.6-6.3,7-9.9
		c2.2-6.8,5.8-11.4,10.5-15.3c3.9-3,7.3-6.2,8.1-12.3c0-0.3-0.1-0.3,0.1-0.9c0.2-0.6,0.3-0.5,0.4-0.7c2.2-3.6,5.7-7.1,9.1-9.1
		c2.6-2.1,5.5-2.6,8.7-1.7c-0.6,1.6-1.9,3.1-3.5,4.6c-2,1.4-3.5,3.4-4.6,6.2c0,3.4,0.9,6.8,2.2,10.2c1.1,5.4,1.2,10.4-0.6,14.6
		c-1.3,4.8-0.6,8.9,2.9,12c3.5,3.5,7.3,3.9,11.5,1.4c1.5-1.9,3.2-5.9,2.1-12.1c5.1,0.3,12.2,3.7,14.3,5.1c2.2,1.3,7.7,5.7,10.3,9.8
		C1192.1,162.3,1194.2,167.3,1194.2,167.3z"/>
	<path class="st23" d="M1117.1,161.8c0.1-0.6,0.3-1.2,0.5-1.7c0.6,1,2.2,1.9,2.7,2.5c1.8,1.8,2.1,2.2,3.9,3.8c1,0.9,2.7,3.5,2.7,3.5
		s1.1,0.8,1.1,1.2c0,0.2,0.6,0.9,0.8,1.2c0.8,1.7,1.4,3.1,2,4.8c0.4,1.1,0.4,2.2,0.8,3.3c0.3,3.2,0.5,3.7,5.3,2.4
		c1.6,0,2.7,0.1,4.1,1c1.5,1,3,2,4.4,3.1c1.2,0.9,2.2,1.9,3.3,2.9c0.8,0.8,1.8,1.5,2.9,1.7c0.6,0.1,2.5,1.5,2.5,1.5s1.9-3.6,2.2-5.3
		c0-0.2,0.1-0.4,0.1-0.6c1.9-1.3,3.4-3.7,4.3-5.4c0,0,0,0,0-0.1c2.6-1,7.1-3.5,7.5-3.6c0.4-0.1,0.8,1.7,1.2,1.6
		c0.4-0.2,0.2-2.1,0.4-2.2c2.8-1.5,5.2-3,7.9-4.5c1.5-0.8,3.2-1.4,4.6-2.5c0.8-0.7,1.9-1.1,2.6-1.9c1.8-0.8,2.2-0.8,3.4-0.2
		c1,0.5,4.1,1.3,4.2,1.4c0.2,0.2,0.4,0.4,0.7,0.6c0.3,0.2,0.7,0.4,1.3,0.7c0.5,0.2,1.2,0.6,1.7,0.8c1.3,0.6,2.8,1.3,3.9,2
		c-4.2-0.9-9.1-2.3-12.7-3.7l-2,0.1c0,0-9.2,6.7-14.1,10.2c-0.6,1.4-0.7,3.2-0.7,5c-1.6-2.3-3.1-3.6-4.4-3.4
		c-4.5,4.5-8.3,9.7-10.7,16c-2.9-1.4-5.8-2.8-8.2-4.8c-2.8-3-5.9-5.8-10.3-7c-4.3-1.1-5.5,2-7.5,3.9c-0.3-3.6-1.2-7.9-1.5-10.6
		c-1.3-4.4-3.3-8.3-6.4-11.4c-2.5-1-8.1-8.1-8.1-8.1L1117.1,161.8z"/>
	<path class="st4" d="M1156.4,196.4c-4.7-2.3-8.8-4.7-11.4-7.5c-2.2-1.9-5-3.4-8.3-4.3c-2,0.3-3.7,1.3-5.1,2.8
		c-1.1,0.8-1.7,0.7-1.5-1c0.3-2.9,0.2-5.8-0.6-8.8c-1.4-3.3-3.1-6.3-5.4-9c-2.8-3.4-7-7.3-10.3-8.8c1,3.9,2.5,8.8,2,12.7
		c-1.3,5-2.2,9.9-2.4,14.7c-0.4,1.5-0.7,5.5-0.4,9.5c4.1,6.4,8.6,12.1,16.1,16.9c0.7,4,4.7,3,7.6-1.1c3.2-0.4,4.2-1.1,5.7-0.1
		c2,2.7,5.3,4.1,8.4,5.7c2.6,2,5.8,2.8,8.7,3.2c2.2,0.2,8.8-0.5,9.1-1.5c-3.2-2.9-9.9-7.5-10.9-10.7
		C1156.6,206.1,1156.4,196.4,1156.4,196.4z"/>
	<path class="st22" d="M1113.3,187.2c0.2-4.8,1.1-9.7,2.4-14.7c0.6-3.9-1-8.9-2-12.7c3.3,1.5,7.5,5.4,10.3,8.8c2.3,2.7,4,5.8,5.4,9
		c0.7,2.9,0.9,5.9,0.6,8.8c-0.2,1.7,0.4,1.9,1.5,1c1.5-1.5,3.1-2.5,5.1-2.8c3.3,0.9,6,2.4,8.3,4.3c2.6,2.7,6.8,5.2,11.4,7.5
		c0,0,0,0.7,0.1,1.7c-0.4,0.4-0.6,0.9-0.9,1.5c-0.2,0.5-0.4,1-0.6,1.5c-0.1,0.2-0.1,0.5-0.2,0.7c0,0,0,0.1-0.1,0.2
		c-6.2-4.1-12.5-9.5-20.4-8.8c-4.3,0.4-7.9,3.1-12.3,1.9c-3.6-1-6.1-3.8-9-5.9C1113.1,188.3,1113.2,187.7,1113.3,187.2z"/>
	<path class="st23" d="M1113.1,188c-0.1,2.7,0,4.8,0.6,6.7c0,0.1,0.8,1.8,1.5,2.3c1.5,1.7,3,3.4,4.5,5.1c1.6,1.8,3.9,3.6,5.5,5.4
		c1.3,1.5,2.8,3.1,4.6,4c1.1,0.6,1.2,2.4,2.3,2.3c1-0.2,3.6-2.3,4.6-2.6c2.8-0.7,5.1-1,7.6,0.7c2.1,1.4,4.2,2.6,6.4,3.9
		c4.8,3,9.7,4.6,14.9,2.3c0.2-0.1,0.4-0.1,0.5-0.2c0.9,0.7,1.7,1.4,2.4,2c-0.3,1-6.9,1.7-9.1,1.5c-2.9-0.5-6.1-1.2-8.7-3.2
		c-3.1-1.6-6.4-3-8.4-5.7c-1.4-1-2.5-0.3-5.7,0.1c-2.8,4.1-6.8,5.1-7.6,1.1c-7.5-4.9-12-10.5-16.1-16.9
		C1112.7,193.3,1112.8,189.9,1113.1,188z"/>
	<path class="st10" d="M1163.4,165.3c0,0-8.3-0.1-10.5-1.4c-2.3-1.4-5.3-5.2-5.8-6.7c-0.5-1.6-2-5.3,1-10.4c2-2.8,3.5-4.3,3.5-4.3
		c2-2,3.7-8.8,3.7-8.8c1,5.2,0.9,9.8-0.7,13.8c-1.3,4.8-0.6,8.9,2.9,12c3.5,3.5,7.3,3.9,11.5,1.4c0.7-0.8,1.3-1.8,1.7-3.2
		C1170.9,161,1168.3,163.5,1163.4,165.3z"/>
	<path class="st23" d="M1157.4,159.5c3.5,3.5,7.3,3.9,11.5,1.4c0.7-0.8,1.3-1.8,1.7-3.2c0.2,3.3-2.3,5.8-7.3,7.6
		c0,0-8.3-0.1-10.5-1.4c-1.3-0.9-2.7-2.2-4.3-4.2c0,0,1.7,1.1,2.5,1.1c0.6,0-0.1-2,0.2-2.2c0.3-0.1,2,1.8,2,1.8
		C1154.3,160.6,1157,159.1,1157.4,159.5z"/>
	<path class="st4" d="M1257.5,270.3c0.6,3.6-0.2,8.2-1.5,12.8c0,0-1.9,7.3-2.4,7.3c-0.5,0-1.6-14.2-1.6-14.2s-1.8-9.8-1.4-10.2
		C1250.9,265.6,1257.4,267.6,1257.5,270.3z"/>
	<path class="st24" d="M1221.4,191.7l-8.1,51c7.4,15,8.7,34.4,5.9,56.9c-2,18.7-1.3,37.4,1.4,55.7c0,0,2.2,9.9,8.2,16.7
		c1.3,1.5,2.8,2.7,2.8,2.7c0.6,0.6,2.2,1.8,5,3.2c0.7,0.4,4.4,2.2,8.7,3.3c10.2,2.5,20.4-0.3,21.4-0.5c4.9-1.4,13-3.7,18.6-10.7
		c5.5-7,6.6-16.1,7.5-24.6c0.3-3.1,0.8-8.7,3.5-15.6c0.7-1.8,1.5-3.5,2.4-5.2c5.2-5.2,9.6-11,11.9-17.3c2.2-4.6,2.8-9.8,2.9-15.3
		c0.1-5.7-2.3-6.3-7.1-2.3c-3.7,2.9-7.7,4.2-12.1,4.2c-9.8-0.2-17.6,3.9-23.4,11.8c-5.2,5.4-9.6,7.9-13.1,6.7
		c-1.7-3.7-2.9-7.3-3-10.9c-0.8-8-1.9-16-2-23.9l-4.6-36.4c-3.5-13.4-6.6-25.2-13.3-33.3C1231.2,202.1,1226.2,197,1221.4,191.7z"/>
	<path class="st25" d="M1220,291.4c4.6-5.4,6.6-12.6,9.5-19.1c0.3-0.7,0.4-1.3,0.3-1.9c3-6.5,4.6-13.3,5.9-20.3
		c1.4-7.7,2.8-15.4,3.3-23.2c0.3-4.5,0.3-9.2-0.4-13.8c4.4,7.7,7,17.4,9.8,28.2l4.6,36.4c0.1,7.9,1.2,15.9,2,23.9
		c0,3.6,1.2,7.2,3,10.9c3.5,1.2,7.9-1.4,13.1-6.7c5.9-8,13.6-12,23.4-11.8c4.4,0,8.5-1.3,12.1-4.2c2.5-2.1,4.3-2.9,5.5-2.5
		c-0.1,2.2-0.2,4.3-0.7,6.7c-0.3,1.6-0.7,3.2-1.2,4.5c0,0.1-0.1,0.2-0.1,0.2c-7.1,1.5-13.4,5.1-19.3,9.6
		c-7.4,5.8-13.7,12.8-22.2,16.9c-7.4,3.4-15,8.4-23.3,8.5c-7,0.1-14-2.2-20-5.9c-2.5-1.6-4.9-3.5-7-5.6c0-7.5,0.3-15,1.1-22.5
		C1219.4,296.8,1219.7,294.1,1220,291.4z"/>
	<path class="st26" d="M1219.1,299.6c0.4-2.9,0.7-5.8,0.9-8.6c0.6-0.8,1.2-1.7,1.8-2.6c1.5-2.4,2.7-5,3.8-7.7c1.1-2.6,2.1-5.2,3-7.9
		c0.3-0.6,0.7-1.2,1-1.8c1.6-3,2.7-6.2,4.2-9.2c0.1-0.2,0.2-0.4,0.4-0.6c0.1-0.1,0.1-0.1,0.2-0.2c0.1-0.1,0.2-0.1,0.4-0.3
		c0.2-0.1,0.4-0.1,0.6-0.2c0,0,0,0,0,0c1.4-0.1,2.8-0.3,4.2-0.2c0.1,0,0.2,0,0.4,0c0.1,0,0.2,0,0.3,0c0.8,0.1,1.5,0.2,2.3,0.3
		c1.4,0.3,2.8,0.6,4.2,1c0.3,0.1,0.5,0.2,0.8,0.3c0.7,0.3,1.4,0.6,2.1,0.9c0.5,0.2,0.9,0.5,1.3,0.7l1.8,14c0.1,7.9,1.2,15.9,2,23.9
		c0,2.9,0.8,5.9,2.1,8.9c-0.1,0.2-0.2,0.5-0.4,0.7c-0.4,0.8-0.8,1.5-1.3,2.2c-1.4-1.7-2.6-3.6-3.5-5.6c-0.7-1.4-3.2-2.2-3.9-0.3
		c0,0.1-0.1,0.2-0.1,0.3c-0.4,0.1-0.7,0.3-1,0.8c-3.3,4.8-4.4,10.9-8.1,15.3c-0.7,0.3-1.5,0.5-2.2,0.7c-1.2,0.3-2.6,0.5-3.8,0.5
		c-1.2,0-2.3-0.6-3.4-0.7c-0.7-0.1-1.2,0.4-1.9,0.6c-0.7,0.2-1.4,0.3-2.1,0.3c-1.2,0-2.6-0.1-3.7-0.6c-1.6-0.8-2.6-2.4-3.4-3.9
		C1218,313.7,1218.3,306.7,1219.1,299.6z"/>
	<path class="st27" d="M1235.3,208.4c0.2,0.6,0.4,1.1,0.6,1.7c0.2,0.7,0.3,1.8,0.6,2.5c0.1,0.4,0.1,0.8,0.2,1.2
		c0.5,3.6,0.6,7.3,0.4,11c0,0.4,0,0.9-0.1,1.3c0,0,0,0.1,0,0.1c-0.1,0.9-0.2,1.8-0.3,2.8c-0.2,1.8-0.5,3.5-0.8,5.3
		c-0.3,1.6-0.6,3.2-1,4.8c-0.2,0.7-0.4,1.4-0.6,2.1c-0.1,0.4-0.3,0.9-0.4,1.3c0,0,0,0.1,0,0.1c0,0,0,0.1-0.1,0.1
		c-1.4,3.3-2.9,6.4-4.8,9.5c-0.3,0.5-0.6,1-0.9,1.5c-0.1,0.1-0.2,0.3-0.3,0.5c0.1-0.1,0.1-0.2,0.2-0.3c-0.4,0.7-0.9,1.4-1.4,2
		c-1,1.4-1.9,2.7-2.9,4.1c-1.4,1.9-2.7,3.8-4,5.7c-1-8.5-3.1-16.2-6.5-23l8.1-51c4.8,5.2,9.8,10.4,13.6,16.2
		C1235.1,208.1,1235.2,208.2,1235.3,208.4z"/>
	<path class="st3" d="M1182.6,225.2c0.9,14,13,24.6,27,23.7s22.5-14.4,23.7-27c5.2-43.4-45.7-51.9-45.7-51.9
		S1181.7,211.2,1182.6,225.2z"/>
	<path class="st28" d="M1189.9,204.3l3.9-0.3c-3.2,3.6-5.1,8.2-5.1,13.5c-0.1,10,6.6,18.6,16.7,19.4c4,0.1,6.8-0.8,10-2.7
		c0.9-0.6,1.8-1.3,2.6-2.2c2.7-2.6,3.6-5.9,4.1-9.5c-0.1-7.5-6.3-13.6-14-11.6c-5.3,1.4-10.4,11.4,1.8,15.8
		c-14.4-0.8-10.2-13.1-6.5-16.5c3.1-2.7,7-3.3,11-2.5c5.5,1.4,9.3,5.5,10.7,10.8c1.5,6.7-0.6,12.2-5.4,16.8
		c-6.8,6.2-16.4,6.4-24.3,1.6C1184.9,229.7,1182.9,215,1189.9,204.3z"/>
	<path class="st29" d="M1166.8,220.5c-2.6-1.4-5-3.3-7.2-5.2c-2-1.8-3.2-4.3-4.1-6.8c-1.1-2.9-1.3-5.2-0.3-8.2
		c0.4-1.1,0.6-2.2,1.2-3.1c0.1,2.4,0.4,9.5,1.2,12.2c1,3.2,7.7,7.8,10.9,10.7c-0.1,0.3-0.6,0.5-1.4,0.7
		C1167,220.6,1166.9,220.6,1166.8,220.5z"/>
	<g>
		<path class="st4" d="M1155.7,204.1c2.4,12.5,14.5,20.7,27,18.3c12.5-2.4,20.7-14.5,18.3-27c-0.6-3.1-1.8-6-3.5-8.4
			c-0.3-0.4-3.1,1.2-3.5,0.8c-0.4-0.5,1.5-1.4,1.4-3.4c-3.8-6.5-8.2-15-8.2-15s-12,5.6-16.2,8.4c-1,1-0.5,3.7-0.8,3.8
			c-0.3,0.1-1.9-2.6-2.2-2.5C1158.7,183.4,1153.6,193.5,1155.7,204.1z"/>
		<path class="st22" d="M1169,185.6c-3,1.7-5.7,3.7-8.1,6.2c-2.2,2.3-4.1,5.1-5.4,8c-0.1,0.2-0.2,0.3-0.2,0.5
			c-0.3-9.2,4.6-17.5,12.9-21.3c0.3-0.1,1.9,2.6,2.2,2.5c0.2-0.1-0.2-2.8,0.8-3.8c4.2-2.9,16.2-8.4,16.2-8.4s0.2,0.4,0.6,1.1
			c0,0,0,0,0,0c-2,1-2.9,3.2-3.5,5.2c-0.5,1.8-1.2,3.7-1.3,5.6c-0.4,0-0.9-0.1-1.3-0.1c-1.8,0-3.5,0.6-4.7,1.9
			C1174.1,183,1171.6,184.1,1169,185.6z"/>
		<path class="st30" d="M1163.5,215.6c5.5-0.8,11.1-1.5,16.4-3.3c5.6-1.9,8.2-5.1,11.3-9.7c2.3-2.7,7.7-13.2,7.7-13.2
			c3.1,6.5,3.2,13,0.4,19.6c-3,6.7-9,11.8-16.8,13.3c-7.9,1.5-15.6-1.2-20.9-6.5C1162.4,215.8,1163,215.7,1163.5,215.6z"/>
		<path class="st23" d="M1183.3,180.7l0.6-4.2c0,0,1-5.5,1-6.1c2-1,2.4-1.1,2.4-1.1l0.5,0.9C1184.3,173.3,1184.5,177.2,1183.3,180.7
			z"/>
		<path class="st29" d="M1155.2,200.3c2.8-6.5,7.7-10.4,14.4-12c5.1-1.4,11.3-0.6,16,1.6c7.2,3.5,8.2,12.6,7.1,19.7
			c-0.7,4.4-3.1,7.8-6.9,10.2c-1.8,1.2-4.1,2.6-6.3,3c-0.1,0-0.1,0-0.2,0c-9.5,0.4-18.3-5.1-22.1-13.6
			C1156.1,206.7,1155.4,203.8,1155.2,200.3z"/>
		<g>
			<path class="st16" d="M1158.4,211.4c4.1,6.6,9.3,9.8,15.3,11c12.5-0.8,19.4-8.6,17.6-20.1c-1.7-9-10.4-14.9-19.4-13.2
				C1162.9,190.8,1156.7,202.4,1158.4,211.4z"/>
			<g id="eye0">
				<path class="st31" d="M1160.3,207c-0.1,0.6-0.4,4.8,2.9,7.9c2.2,2.1,4.8,2.5,5.7,2.5c4.3,0.3,8.2-1.9,9.8-5.4
					c1.8-4-0.1-7.8-0.4-8.3c-1.7-3.1-5.2-5.5-9.2-5.2C1164.7,198.9,1161,202.4,1160.3,207z"/>
				<path class="st32" d="M1163.2,208.7c0,0.5,0.1,1.6,0.8,2.8c0.2,0.3,0.8,1.3,2,2c2.2,1.3,5.6,0.9,7.4-1.2
					c1.2-1.5,1.2-3.3,1.2-3.8c0-0.5-0.1-2.5-1.7-4.1c-1.9-1.8-4.5-1.5-4.9-1.4c-0.5,0.1-2.6,0.4-3.9,2.4
					C1163.2,206.8,1163.2,208.2,1163.2,208.7z"/>
			</g>
			<g class="st33">
				<defs>
					<filter id="Adobe_OpacityMaskFilter" filterUnits="userSpaceOnUse" x="1163" y="200.4" width="28.7" height="22">
						<feFlood  style="flood-color:white;flood-opacity:1" result="back"/>
						<feBlend  in="SourceGraphic" in2="back" mode="normal"/>
					</filter>
				</defs>
				<mask maskUnits="userSpaceOnUse" x="1163" y="200.4" width="28.7" height="22" id="SVGID_1_">
					<g class="st34">
						<image style="overflow:visible;" width="33" height="27" xlink:href="5517DE5B.jpg"  transform="matrix(1 0 0 1 1161 198)">
						</image>
					</g>
				</mask>
				<g class="st35">
					<path class="st36" d="M1190.9,200.4c0.2,8.2-16.4,13.4-16.4,13.4L1163,217c2.7,2.6,6.2,4.5,10.8,5.4c3-0.2,5.9-0.8,8.6-2
						c4.1-2,6.8-4.9,8.1-8.4C1191.9,208.6,1192,204.1,1190.9,200.4z"/>
				</g>
			</g>
			<circle id="eye" class="st16" cx="1171.7" cy="210" r="1.7"/>
		</g>
	</g>
	
		<ellipse transform="matrix(0.9979 -6.453263e-02 6.453263e-02 0.9979 -19.4649 76.0624)" class="st37" cx="1167.7" cy="339.3" rx="9.2" ry="33.3"/>
	<g id="hand">
		<path class="st3" d="M1248.2,274.2c-3.6-10.3-8.8-11.5-15.4-4.5c-1.3,7.7-3.4,14.7-6.3,20.8c-1.3,2.3-3,4.6-5.5,6.5
			c-2.1-0.4-4,0.2-5.6,1.6c-1.8,1.9-1.7,3.9-0.7,5.9c0.2,0.6,1.6,1,3.5,1.1c-1.8,0.9-4.2,1.8-5.2,3.3c-1.4,1.8-0.9,4-0.3,6.1
			c0.6,1.4,1.9,2.3,3.2,3.1c1.1,0.3,2.4,0.1,3.7-0.4c-0.7,0.9-0.6,1.9-0.4,3c0.2,1.2,1,1.9,2,2.7c1.6,1,3.5,1.1,5.4,0.6
			c1-0.5,1.9-1.2,2.5-2.2c0,0.7,0.2,1.4,0.7,2c0.9,0.6,2.1,0.7,3.3,0.6c2.3-0.6,3.9-2.2,4.9-3.9c2.2-4.1,3.9-8.3,5.2-12.5
			c1.6-4.8,2.8-10.1,3.8-15.6c0.5-3.7,0.7-7.9,0.8-12.5C1248.1,278,1248.2,276.1,1248.2,274.2z"/>
		<path class="st2" d="M1212.9,309c0.5-0.7,1.3-1.3,2.2-1.8c-4.2,2.5-3.5,9.6,1.3,9.3c-0.3,0-0.4,1.7-0.7,1.6
			c-1.3-0.8-2.5-1.7-3.2-3.1C1212.1,312.9,1211.5,310.7,1212.9,309z"/>
		<path class="st2" d="M1219.2,304.5c0.8-0.1,4.7-1.2,3.3,0.8c-0.9,1.3-4,1-5.5,1.3c-0.6,0.1-1.1,0.3-1.7,0.5
			c0.9-0.5,1.9-0.9,2.8-1.4c-1.9-0.2-3.3-0.6-3.5-1.1C1216.1,304.7,1217.6,304.6,1219.2,304.5z"/>
		<path class="st2" d="M1217.5,316.1c1.1-0.4,2.3-0.9,3.4-1.2c-0.1,0.4-0.2,0.8-0.3,1.2c-0.1,0.9-0.1,1.8,0.2,2.6
			c0.5,1.4,1.6,2.4,3.1,2.6c1.4,0.1,2.7-0.5,3.8-1.3c0.6-0.4,1.1-1,1.6-1.6c0.5-0.6,0.2-0.6,0.8-0.2c3.1,2.1,7.3-1,9.2-3.4
			c1.6-2,2.6-4.4,3.9-6.5c-1.3,4.1-2.9,8.1-5.1,12.1c-1,1.8-2.6,3.3-4.9,3.9c-1.3,0.1-2.4-0.1-3.3-0.6c-0.6-0.6-0.8-1.3-0.7-2
			c-0.6,1-1.5,1.7-2.5,2.2c-2,0.5-3.8,0.4-5.4-0.6c-1-0.8-1.8-1.5-2-2.7c-0.2-1.1-0.3-2.1,0.4-3c-1.3,0.6-2.6,0.8-3.7,0.4
			c-0.7-0.4-1.4-0.9-1.9-1.4C1215.1,317,1216.4,316.5,1217.5,316.1z"/>
	</g>
</g>
<path id="water1" class="st1" d="M3228.7,1182h-4431c0,0-398.8-878-74.7-828.3c196.3,30.1,519.3,21.3,747.6-12.2
	c23.9-3.5,85.8-21.2,173.1-32.2c50.4-6.4,102.2-12.7,171.5-10.2c46.8,1.7,105.4,3.9,177.2,25.1c33.6,9.9,38.6,14.7,116,39.5
	c59,18.9,86.2,25.8,94.9,27.9c24.7,6.1,59.8,14.7,106,20.8c26.8,3.5,73.3,9.4,133,6.6c46.9-2.2,84-8.9,126.1-16.6
	c18.5-3.4,42.3-8.1,92.6-17.1c17.1-3.1,27.5-4.9,41.2-7.2c0,0,44-7.3,88.2-13.1c179.6-23.4,369-17,369-17
	c306.7,10.3,455.1,78.1,724.1,87.5c264.9,9.2,536.3-137.2,754.5-137.2c226.8,0,387.5,64.3,563.1,90.5
	C3471.5,429.6,3228.7,1182,3228.7,1182z"/>
<path id="water2" class="st38" d="M3295,1146.6h-4559.3c0,0-331.4-843.2,10.6-887.2c200.5-25.7,457.7,94.2,684.5,106.6
	c260.5,14.2,720.3-111.5,916.5-100.6c231.7,12.7,517.3,118.4,706.6,109c193.5-9.4,577.9-116,769.3-109.6
	c278.4,9.1,732.7,204.4,961.7,192.6c161.4-8.5,487.6-151.1,510.1-82.7C3357.3,564.5,3295,1146.6,3295,1146.6z"/>
<linearGradient id="waterp1_1_" gradientUnits="userSpaceOnUse" x1="535.6458" y1="169.0894" x2="516.5565" y2="189.283" gradientTransform="matrix(1 0 0 -1 0 322)">
	<stop  offset="0" style="stop-color:#238796"/>
	<stop  offset="0.2163" style="stop-color:#249CAE"/>
	<stop  offset="0.5195" style="stop-color:#25BFD6"/>
	<stop  offset="0.8193" style="stop-color:#86D8E7"/>
	<stop  offset="1" style="stop-color:#C2E7F2"/>
</linearGradient>
<path id="waterp1" class="st39" d="M493.5,157.2c0,0,9.5,1,18.8-5.9c9.2-6.9,4.2-15,7.6-17.6s9.6-0.7,10.1,5.8
	c0.4,6.4-7.8,13.9-7.8,13.9c12.3-7,11.6-29.6,25.6-33.9c3.4-1.1,9.4,5.1-0.4,18.1c-9.8,13-18,17.3-18,17.3s8.3-3.5,12.2-7.5
	c4.1-4.3,9.3-4.5,10-0.4c0.7,4-2.7,8.3-10.1,10.3c-11.2,2.9-15.4,3.7-15.4,3.7s13.5-2.9,13.5,0.4c0,0.9-0.4,1.8-0.6,2.1
	c-1.8,2.6-6.4,3.4-15,2.4C517.5,164.9,507.1,162.9,493.5,157.2z"/>
<linearGradient id="waterp2_1_" gradientUnits="userSpaceOnUse" x1="536.7283" y1="172.1245" x2="517.639" y2="192.3181" gradientTransform="matrix(0.9987 -5.145190e-02 -5.145190e-02 -0.9987 10.0009 350.5813)">
	<stop  offset="0" style="stop-color:#238796"/>
	<stop  offset="0.2163" style="stop-color:#249CAE"/>
	<stop  offset="0.5195" style="stop-color:#25BFD6"/>
	<stop  offset="0.8193" style="stop-color:#86D8E7"/>
	<stop  offset="1" style="stop-color:#C2E7F2"/>
</linearGradient>
<path id="waterp2" class="st40" d="M495.3,157.5c0,0,9.5,0.5,18.5-6.9c8.8-7.4,3.4-15.2,6.7-18c3.3-2.8,9.6-1.2,10.4,5.3
	c0.7,6.4-7.1,14.3-7.1,14.3c11.9-7.6,10.1-30.2,23.8-35.2c3.3-1.3,9.6,4.6,0.5,18.1c-9.1,13.5-17.1,18.2-17.1,18.2s8.1-3.9,11.8-8.1
	c3.9-4.5,9.1-5,10-0.9c0.9,4-2.3,8.4-9.6,10.8c-11,3.5-15.2,4.5-15.2,4.5s13.3-3.6,13.5-0.3c0,0.9-0.3,1.8-0.5,2.1
	c-1.7,2.7-6.2,3.7-14.9,3.2C519.7,163.9,509.2,162.6,495.3,157.5z"/>
<g id="ppp">
	<path id="p6" class="st41" d="M554.5,144.4c0,0,5.6-7.1,8.4-5.9c2.8,1.2,0.9,4.5-2.3,4.5C557.4,143.2,554.5,144.4,554.5,144.4z"/>
	<path id="p5" class="st16" d="M536.6,140.5c1-0.6,1.7,4.3-0.5,6.3C536.1,146.8,535.6,141.1,536.6,140.5z"/>
	<g id="p4">
		<path class="st41" d="M529.5,151c0,0,6.8-5.6,1.5-9.6C528.1,139.3,530,148.7,529.5,151z"/>
		<path class="st16" d="M530.1,146.4c0,0-0.2-4,0.1-4.3c0.3-0.2,1.4,0.4,1.4,2.3C531.6,146.3,530.1,146.4,530.1,146.4z"/>
	</g>
	<g id="p3">
		<path class="st41" d="M543.2,141c0,0,3.1-3.9,2-7.9s-5.8-3.4-5.4-1.3C540.1,133.8,543.2,135.9,543.2,141z"/>
		<path class="st16" d="M544.6,134.4c0,0,0.2-1.2-1-2.7s-2.3-0.6-2-0.1C542,132,544.2,132.6,544.6,134.4z"/>
	</g>
	<path id="p2" class="st41" d="M547.1,139.2c-0.1,0.1,3.9-7.3,5.7-7.6c1.7-0.3,3,1.7,1.7,2.2C553.1,134.4,548.4,137.8,547.1,139.2z"
		/>
	<path id="p1" class="st41" d="M532.7,160.9c0,0,4.8,0.1,5.5,1.2c0.7,1.1-0.6,3.5-1.8,2.2C535.1,163,532.7,160.9,532.7,160.9z"/>
</g>

</svg>
